<svg width="340" height="341" viewBox="0 0 340 341" fill="none" xmlns="http://www.w3.org/2000/svg">
<mask id="mask0_2032_6" style="mask-type:luminance" maskUnits="userSpaceOnUse" x="0" y="0" width="340" height="341">
<path d="M0 6.91414e-06V341H340V6.91414e-06H0Z" fill="white"/>
</mask>
<g mask="url(#mask0_2032_6)">
<path d="M166.208 174.418C176.067 127.071 214.553 125.916 217.997 116.933C223.368 102.921 213.538 78.0574 211.025 75.1172C210.783 74.8015 210.434 75.0036 210.31 75.265C205.093 86.7352 196.633 97.6573 190.459 102.675C181.723 109.72 148.292 134.531 165.39 174.452C165.587 174.946 166.09 174.822 166.208 174.418Z" fill="#4F2987"/>
<path d="M159.408 176.316C138.542 131.679 180.28 102.848 187.079 96.5965C188.04 95.7187 187.799 94.9091 187.818 93.9076C187.818 79.8534 179.777 57.115 177.142 53.8629C176.772 53.3602 176.457 53.5774 176.303 54.0851C172.741 67.9386 153.747 88.5855 149.918 93.1044C117.695 131.467 125.071 154.827 158.713 176.859C159.142 177.131 159.659 176.82 159.408 176.316Z" fill="#4F2987"/>
<path d="M150.072 177.855C115.167 157.001 118.661 127.218 133.127 105.329C133.437 104.87 133.536 104.106 133.437 103.218C132.832 98.0123 127.159 84.8408 124.79 81.259C124.184 80.351 123.667 80.4255 123.608 81.0709C123.415 87.0257 116.646 101.95 106.284 119.138C95.2714 137.431 95.2468 177.131 149.918 178.68C150.441 178.694 150.589 178.156 150.072 177.855Z" fill="#4F2987"/>
<path d="M173.051 178.526C235.366 180.787 239.775 123.928 240.021 102.65C240.05 101.417 239.43 101.309 239.135 102.171C237.287 106.612 229.186 122.468 206.719 132.108C186.655 140.727 174.589 160.283 172.485 177.855C172.392 178.29 172.761 178.526 173.051 178.526Z" fill="#4F2987"/>
<path d="M187.228 199.839V185.523H138.079V199.839H187.228Z" fill="#4F2987"/>
<path d="M158.491 301.138C158.891 303.53 164.059 304.705 165.217 301.138L177.122 206.678H148.204L158.491 301.138Z" fill="#4F2987"/>
</g>
</svg>
